{
  "asset": {
    "generator": "Khronos glTF Blender I/O v1.3.48",
    "version": "2.0"
  },
  "scene": 0,
  "scenes": [
    {
      "name": "Scene",
      "nodes": [
        0,
        1,
        2,
        3,
        4
      ]
    }
  ],
  "nodes": [
    {
      "mesh": 0,
      "name": "Cube",
      "scale": [
        4.884137153625488,
        0.8717556595802307,
        4.473286151885986
      ],
      "translation": [
        0,
        1.084141492843628,
        0
      ]
    },
    {
      "name": "Light",
      "rotation": [
        0.16907575726509094,
        0.7558803558349609,
        -0.27217137813568115,
        0.570947527885437
      ],
      "translation": [
        -0.6886069774627686,
        5.903861999511719,
        0.7845066785812378
      ]
    },
    {
      "name": "Camera",
      "rotation": [
        0.483536034822464,
        0.33687159419059753,
        -0.20870360732078552,
        0.7804827094078064
      ],
      "translation": [
        16.2388916015625,
        11.778308868408203,
        15.965789794921875
      ]
    },
    {
      "mesh": 1,
      "name": "Cube.001",
      "scale": [
        4.631294250488281,
        0.28720733523368835,
        4.175015926361084
      ],
      "translation": [
        0,
        1.084141492843628,
        0
      ]
    },
    {
      "name": "Light.001",
      "rotation": [
        0.16907575726509094,
        0.7558803558349609,
        -0.27217137813568115,
        0.570947527885437
      ],
      "translation": [
        2.3335814476013184,
        5.903861999511719,
        7.2676801681518555
      ]
    }
  ],
  "materials": [
    {
      "doubleSided": true,
      "emissiveFactor": [
        0,
        0,
        0
      ],
      "name": "Material.001",
      "pbrMetallicRoughness": {
        "baseColorFactor": [
          0.04696156457066536,
          0.002569758566096425,
          0,
          1
        ],
        "metallicFactor": 0,
        "roughnessFactor": 0.5
      }
    },
    {
      "alphaCutoff": 0,
      "alphaMode": "MASK",
      "doubleSided": true,
      "name": "Material",
      "pbrMetallicRoughness": {}
    }
  ],
  "meshes": [
    {
      "name": "Cube",
      "primitives": [
        {
          "attributes": {
            "POSITION": 0,
            "NORMAL": 1,
            "TEXCOORD_0": 2
          },
          "indices": 3,
          "material": 0
        }
      ]
    },
    {
      "name": "Cube.001",
      "primitives": [
        {
          "attributes": {
            "POSITION": 4,
            "NORMAL": 5,
            "TEXCOORD_0": 6
          },
          "indices": 7,
          "material": 1
        }
      ]
    }
  ],
  "accessors": [
    {
      "bufferView": 0,
      "componentType": 5126,
      "count": 20,
      "max": [
        1,
        1,
        1
      ],
      "min": [
        -1,
        -1,
        -1
      ],
      "type": "VEC3"
    },
    {
      "bufferView": 1,
      "componentType": 5126,
      "count": 20,
      "type": "VEC3"
    },
    {
      "bufferView": 2,
      "componentType": 5126,
      "count": 20,
      "type": "VEC2"
    },
    {
      "bufferView": 3,
      "componentType": 5123,
      "count": 30,
      "type": "SCALAR"
    },
    {
      "bufferView": 4,
      "componentType": 5126,
      "count": 4,
      "max": [
        1,
        1,
        1
      ],
      "min": [
        -1,
        1,
        -1
      ],
      "type": "VEC3"
    },
    {
      "bufferView": 5,
      "componentType": 5126,
      "count": 4,
      "type": "VEC3"
    },
    {
      "bufferView": 6,
      "componentType": 5126,
      "count": 4,
      "type": "VEC2"
    },
    {
      "bufferView": 7,
      "componentType": 5123,
      "count": 6,
      "type": "SCALAR"
    }
  ],
  "bufferViews": [
    {
      "buffer": 0,
      "byteLength": 240,
      "byteOffset": 0
    },
    {
      "buffer": 0,
      "byteLength": 240,
      "byteOffset": 240
    },
    {
      "buffer": 0,
      "byteLength": 160,
      "byteOffset": 480
    },
    {
      "buffer": 0,
      "byteLength": 60,
      "byteOffset": 640
    },
    {
      "buffer": 0,
      "byteLength": 48,
      "byteOffset": 700
    },
    {
      "buffer": 0,
      "byteLength": 48,
      "byteOffset": 748
    },
    {
      "buffer": 0,
      "byteLength": 32,
      "byteOffset": 796
    },
    {
      "buffer": 0,
      "byteLength": 12,
      "byteOffset": 828
    }
  ],
  "buffers": [
    {
      "uri": "grass_data.bin",
      "byteLength": 840
    }
  ]
}